<?xml version="1.0" encoding="UTF-8" standalone="no"?>
<!DOCTYPE svg PUBLIC "-//W3C//DTD SVG 1.1//EN"
 "http://www.w3.org/Graphics/SVG/1.1/DTD/svg11.dtd">
<!-- Generated by graphviz version 2.47.3 (20210619.1520)
 -->
<!-- Title: dependencies Pages: 1 -->
<svg width="700pt" height="247pt"
 viewBox="0.00 0.00 700.00 246.80" xmlns="http://www.w3.org/2000/svg" xmlns:xlink="http://www.w3.org/1999/xlink">
<g id="graph0" class="graph" transform="scale(1 1) rotate(0) translate(4 242.8)">
<title>dependencies</title>
<polygon fill="white" stroke="transparent" points="-4,4 -4,-242.8 696,-242.8 696,4 -4,4"/>
<text text-anchor="middle" x="346" y="-8.2" font-family="sans-serif" font-size="14.00">dependencies</text>
<g id="clust1" class="cluster">
<title>cluster_ShortcutsModule</title>
<polygon fill="none" stroke="black" stroke-dasharray="1,5" points="8,-32.8 8,-230.8 684,-230.8 684,-32.8 8,-32.8"/>
</g>
<g id="clust2" class="cluster">
<title>cluster_ShortcutsModule_declarations</title>
<polygon fill="none" stroke="black" points="24,-40.8 24,-92.8 670,-92.8 670,-40.8 24,-40.8"/>
</g>
<g id="clust8" class="cluster">
<title>cluster_ShortcutsModule_exports</title>
<polygon fill="none" stroke="black" points="16,-170.8 16,-222.8 676,-222.8 676,-170.8 16,-170.8"/>
</g>
<!-- ShortcutsAnchorDirective -->
<g id="node1" class="node">
<title>ShortcutsAnchorDirective</title>
<polygon fill="#ffffb3" stroke="black" points="662.45,-84.8 499.55,-84.8 499.55,-48.8 662.45,-48.8 662.45,-84.8"/>
<text text-anchor="middle" x="581" y="-62.6" font-family="Times,serif" font-size="14.00">ShortcutsAnchorDirective</text>
</g>
<!-- ShortcutsModule -->
<g id="node5" class="node">
<title>ShortcutsModule</title>
<polygon fill="#8dd3c7" stroke="black" points="327.43,-149.8 324.43,-153.8 303.43,-153.8 300.43,-149.8 214.57,-149.8 214.57,-113.8 327.43,-113.8 327.43,-149.8"/>
<text text-anchor="middle" x="271" y="-127.6" font-family="Times,serif" font-size="14.00">ShortcutsModule</text>
</g>
<!-- ShortcutsAnchorDirective&#45;&gt;ShortcutsModule -->
<g id="edge1" class="edge">
<title>ShortcutsAnchorDirective&#45;&gt;ShortcutsModule</title>
<path fill="none" stroke="black" d="M608.91,-85.07C608.91,-103.36 608.91,-128.8 608.91,-128.8 608.91,-128.8 337.56,-128.8 337.56,-128.8"/>
<polygon fill="black" stroke="black" points="337.56,-125.3 327.56,-128.8 337.56,-132.3 337.56,-125.3"/>
</g>
<!-- ShortcutsComponent -->
<g id="node2" class="node">
<title>ShortcutsComponent</title>
<polygon fill="#ffffb3" stroke="black" points="481.22,-84.8 346.78,-84.8 346.78,-48.8 481.22,-48.8 481.22,-84.8"/>
<text text-anchor="middle" x="414" y="-62.6" font-family="Times,serif" font-size="14.00">ShortcutsComponent</text>
</g>
<!-- ShortcutsComponent&#45;&gt;ShortcutsModule -->
<g id="edge2" class="edge">
<title>ShortcutsComponent&#45;&gt;ShortcutsModule</title>
<path fill="none" stroke="black" d="M436.37,-84.81C436.37,-100.85 436.37,-121.8 436.37,-121.8 436.37,-121.8 337.45,-121.8 337.45,-121.8"/>
<polygon fill="black" stroke="black" points="337.45,-118.3 327.45,-121.8 337.45,-125.3 337.45,-118.3"/>
</g>
<!-- ShortcutsDirective -->
<g id="node3" class="node">
<title>ShortcutsDirective</title>
<polygon fill="#ffffb3" stroke="black" points="328.47,-84.8 207.53,-84.8 207.53,-48.8 328.47,-48.8 328.47,-84.8"/>
<text text-anchor="middle" x="268" y="-62.6" font-family="Times,serif" font-size="14.00">ShortcutsDirective</text>
</g>
<!-- ShortcutsDirective&#45;&gt;ShortcutsModule -->
<g id="edge3" class="edge">
<title>ShortcutsDirective&#45;&gt;ShortcutsModule</title>
<path fill="none" stroke="black" d="M271,-84.91C271,-84.91 271,-103.79 271,-103.79"/>
<polygon fill="black" stroke="black" points="267.5,-103.79 271,-113.79 274.5,-103.79 267.5,-103.79"/>
</g>
<!-- ShortcutsKeyComponent -->
<g id="node4" class="node">
<title>ShortcutsKeyComponent</title>
<polygon fill="#ffffb3" stroke="black" points="189.54,-84.8 32.46,-84.8 32.46,-48.8 189.54,-48.8 189.54,-84.8"/>
<text text-anchor="middle" x="111" y="-62.6" font-family="Times,serif" font-size="14.00">ShortcutsKeyComponent</text>
</g>
<!-- ShortcutsKeyComponent&#45;&gt;ShortcutsModule -->
<g id="edge4" class="edge">
<title>ShortcutsKeyComponent&#45;&gt;ShortcutsModule</title>
<path fill="none" stroke="black" d="M134.42,-84.82C134.42,-102.17 134.42,-125.8 134.42,-125.8 134.42,-125.8 204.66,-125.8 204.66,-125.8"/>
<polygon fill="black" stroke="black" points="204.66,-129.3 214.66,-125.8 204.66,-122.3 204.66,-129.3"/>
</g>
<!-- ShortcutsAnchorDirective  -->
<g id="node6" class="node">
<title>ShortcutsAnchorDirective </title>
<polygon fill="#fb8072" stroke="black" points="668.45,-214.8 501.55,-214.8 501.55,-178.8 668.45,-178.8 668.45,-214.8"/>
<text text-anchor="middle" x="585" y="-192.6" font-family="Times,serif" font-size="14.00">ShortcutsAnchorDirective </text>
</g>
<!-- ShortcutsModule&#45;&gt;ShortcutsAnchorDirective  -->
<g id="edge5" class="edge">
<title>ShortcutsModule&#45;&gt;ShortcutsAnchorDirective </title>
<path fill="none" stroke="black" stroke-dasharray="5,2" d="M327.52,-135.8C410.44,-135.8 555.34,-135.8 555.34,-135.8 555.34,-135.8 555.34,-168.5 555.34,-168.5"/>
<polygon fill="black" stroke="black" points="551.84,-168.5 555.34,-178.5 558.84,-168.5 551.84,-168.5"/>
</g>
<!-- ShortcutsComponent  -->
<g id="node7" class="node">
<title>ShortcutsComponent </title>
<polygon fill="#fb8072" stroke="black" points="483.72,-214.8 346.28,-214.8 346.28,-178.8 483.72,-178.8 483.72,-214.8"/>
<text text-anchor="middle" x="415" y="-192.6" font-family="Times,serif" font-size="14.00">ShortcutsComponent </text>
</g>
<!-- ShortcutsModule&#45;&gt;ShortcutsComponent  -->
<g id="edge6" class="edge">
<title>ShortcutsModule&#45;&gt;ShortcutsComponent </title>
<path fill="none" stroke="black" stroke-dasharray="5,2" d="M327.43,-142.8C358.83,-142.8 391.63,-142.8 391.63,-142.8 391.63,-142.8 391.63,-168.52 391.63,-168.52"/>
<polygon fill="black" stroke="black" points="388.13,-168.52 391.63,-178.52 395.13,-168.52 388.13,-168.52"/>
</g>
<!-- ShortcutsDirective  -->
<g id="node8" class="node">
<title>ShortcutsDirective </title>
<polygon fill="#fb8072" stroke="black" points="328.47,-214.8 203.53,-214.8 203.53,-178.8 328.47,-178.8 328.47,-214.8"/>
<text text-anchor="middle" x="266" y="-192.6" font-family="Times,serif" font-size="14.00">ShortcutsDirective </text>
</g>
<!-- ShortcutsModule&#45;&gt;ShortcutsDirective  -->
<g id="edge7" class="edge">
<title>ShortcutsModule&#45;&gt;ShortcutsDirective </title>
<path fill="none" stroke="black" stroke-dasharray="5,2" d="M271,-149.91C271,-149.91 271,-168.79 271,-168.79"/>
<polygon fill="black" stroke="black" points="267.5,-168.79 271,-178.79 274.5,-168.79 267.5,-168.79"/>
</g>
<!-- ShortcutsKeyComponent  -->
<g id="node9" class="node">
<title>ShortcutsKeyComponent </title>
<polygon fill="#fb8072" stroke="black" points="185.54,-214.8 24.46,-214.8 24.46,-178.8 185.54,-178.8 185.54,-214.8"/>
<text text-anchor="middle" x="105" y="-192.6" font-family="Times,serif" font-size="14.00">ShortcutsKeyComponent </text>
</g>
<!-- ShortcutsModule&#45;&gt;ShortcutsKeyComponent  -->
<g id="edge8" class="edge">
<title>ShortcutsModule&#45;&gt;ShortcutsKeyComponent </title>
<path fill="none" stroke="black" stroke-dasharray="5,2" d="M214.69,-137.8C159.41,-137.8 83.33,-137.8 83.33,-137.8 83.33,-137.8 83.33,-168.78 83.33,-168.78"/>
<polygon fill="black" stroke="black" points="79.83,-168.78 83.33,-178.78 86.83,-168.78 79.83,-168.78"/>
</g>
</g>
</svg>
