<?xml version="1.0" encoding="UTF-8" standalone="no"?>
<!DOCTYPE svg PUBLIC "-//W3C//DTD SVG 1.1//EN"
 "http://www.w3.org/Graphics/SVG/1.1/DTD/svg11.dtd">
<!-- Generated by graphviz version 2.47.0 (20210316.0004)
 -->
<!-- Title: dependencies Pages: 1 -->
<svg width="822pt" height="284pt"
 viewBox="0.00 0.00 822.00 284.00" xmlns="http://www.w3.org/2000/svg" xmlns:xlink="http://www.w3.org/1999/xlink">
<g id="graph0" class="graph" transform="scale(1 1) rotate(0) translate(4 280)">
<title>dependencies</title>
<polygon fill="white" stroke="transparent" points="-4,4 -4,-280 818,-280 818,4 -4,4"/>
<text text-anchor="start" x="386.01" y="-42.4" font-family="Times-12" font-weight="bold" font-size="14.00">Legend</text>
<polygon fill="#ffffb3" stroke="transparent" points="173,-10 173,-30 193,-30 193,-10 173,-10"/>
<text text-anchor="start" x="196.63" y="-15.4" font-family="Times-12" font-size="14.00"> &#160;Declarations</text>
<polygon fill="#8dd3c7" stroke="transparent" points="286,-10 286,-30 306,-30 306,-10 286,-10"/>
<text text-anchor="start" x="309.73" y="-15.4" font-family="Times-12" font-size="14.00"> &#160;Module</text>
<polygon fill="#80b1d3" stroke="transparent" points="372,-10 372,-30 392,-30 392,-10 372,-10"/>
<text text-anchor="start" x="395.78" y="-15.4" font-family="Times-12" font-size="14.00"> &#160;Bootstrap</text>
<polygon fill="#fdb462" stroke="transparent" points="469,-10 469,-30 489,-30 489,-10 469,-10"/>
<text text-anchor="start" x="492.67" y="-15.4" font-family="Times-12" font-size="14.00"> &#160;Providers</text>
<polygon fill="#fb8072" stroke="transparent" points="565,-10 565,-30 585,-30 585,-10 565,-10"/>
<text text-anchor="start" x="588.73" y="-15.4" font-family="Times-12" font-size="14.00"> &#160;Exports</text>
<g id="clust1" class="cluster">
<title>cluster_ShortcutsModule</title>
<polygon fill="none" stroke="black" stroke-dasharray="1,5" points="8,-70 8,-268 806,-268 806,-70 8,-70"/>
</g>
<g id="clust2" class="cluster">
<title>cluster_ShortcutsModule_declarations</title>
<polygon fill="none" stroke="black" points="16,-78 16,-130 798,-130 798,-78 16,-78"/>
</g>
<g id="clust9" class="cluster">
<title>cluster_ShortcutsModule_exports</title>
<polygon fill="none" stroke="black" points="77,-208 77,-260 737,-260 737,-208 77,-208"/>
</g>
<!-- ShortcutsAnchorDirective -->
<g id="node1" class="node">
<title>ShortcutsAnchorDirective</title>
<polygon fill="#ffffb3" stroke="black" points="790.45,-122 627.55,-122 627.55,-86 790.45,-86 790.45,-122"/>
<text text-anchor="middle" x="709" y="-99.8" font-family="Times,serif" font-size="14.00">ShortcutsAnchorDirective</text>
</g>
<!-- ShortcutsModule -->
<g id="node6" class="node">
<title>ShortcutsModule</title>
<polygon fill="#8dd3c7" stroke="black" points="452.43,-187 449.43,-191 428.43,-191 425.43,-187 339.57,-187 339.57,-151 452.43,-151 452.43,-187"/>
<text text-anchor="middle" x="396" y="-164.8" font-family="Times,serif" font-size="14.00">ShortcutsModule</text>
</g>
<!-- ShortcutsAnchorDirective&#45;&gt;ShortcutsModule -->
<g id="edge1" class="edge">
<title>ShortcutsAnchorDirective&#45;&gt;ShortcutsModule</title>
<path fill="none" stroke="black" d="M678.38,-122.11C678.38,-141.34 678.38,-169 678.38,-169 678.38,-169 462.46,-169 462.46,-169"/>
<polygon fill="black" stroke="black" points="462.46,-165.5 452.46,-169 462.46,-172.5 462.46,-165.5"/>
</g>
<!-- ShortcutsComponent -->
<g id="node2" class="node">
<title>ShortcutsComponent</title>
<polygon fill="#ffffb3" stroke="black" points="609.22,-122 474.78,-122 474.78,-86 609.22,-86 609.22,-122"/>
<text text-anchor="middle" x="542" y="-99.8" font-family="Times,serif" font-size="14.00">ShortcutsComponent</text>
</g>
<!-- ShortcutsComponent&#45;&gt;ShortcutsModule -->
<g id="edge2" class="edge">
<title>ShortcutsComponent&#45;&gt;ShortcutsModule</title>
<path fill="none" stroke="black" d="M509.88,-122.03C509.88,-138.4 509.88,-160 509.88,-160 509.88,-160 462.27,-160 462.27,-160"/>
<polygon fill="black" stroke="black" points="462.27,-156.5 452.27,-160 462.27,-163.5 462.27,-156.5"/>
</g>
<!-- ShortcutsDirective -->
<g id="node3" class="node">
<title>ShortcutsDirective</title>
<polygon fill="#ffffb3" stroke="black" points="456.47,-122 335.53,-122 335.53,-86 456.47,-86 456.47,-122"/>
<text text-anchor="middle" x="396" y="-99.8" font-family="Times,serif" font-size="14.00">ShortcutsDirective</text>
</g>
<!-- ShortcutsDirective&#45;&gt;ShortcutsModule -->
<g id="edge3" class="edge">
<title>ShortcutsDirective&#45;&gt;ShortcutsModule</title>
<path fill="none" stroke="black" d="M396,-122.11C396,-122.11 396,-140.99 396,-140.99"/>
<polygon fill="black" stroke="black" points="392.5,-140.99 396,-150.99 399.5,-140.99 392.5,-140.99"/>
</g>
<!-- ShortcutsKeyComponent -->
<g id="node4" class="node">
<title>ShortcutsKeyComponent</title>
<polygon fill="#ffffb3" stroke="black" points="317.54,-122 160.46,-122 160.46,-86 317.54,-86 317.54,-122"/>
<text text-anchor="middle" x="239" y="-99.8" font-family="Times,serif" font-size="14.00">ShortcutsKeyComponent</text>
</g>
<!-- ShortcutsKeyComponent&#45;&gt;ShortcutsModule -->
<g id="edge4" class="edge">
<title>ShortcutsKeyComponent&#45;&gt;ShortcutsModule</title>
<path fill="none" stroke="black" d="M291.27,-122.03C291.27,-138.4 291.27,-160 291.27,-160 291.27,-160 329.65,-160 329.65,-160"/>
<polygon fill="black" stroke="black" points="329.65,-163.5 339.65,-160 329.65,-156.5 329.65,-163.5"/>
</g>
<!-- ShortkeyDirective -->
<g id="node5" class="node">
<title>ShortkeyDirective</title>
<polygon fill="#ffffb3" stroke="black" points="142.13,-122 23.87,-122 23.87,-86 142.13,-86 142.13,-122"/>
<text text-anchor="middle" x="83" y="-99.8" font-family="Times,serif" font-size="14.00">ShortkeyDirective</text>
</g>
<!-- ShortkeyDirective&#45;&gt;ShortcutsModule -->
<g id="edge5" class="edge">
<title>ShortkeyDirective&#45;&gt;ShortcutsModule</title>
<path fill="none" stroke="black" d="M113.9,-122.11C113.9,-141.34 113.9,-169 113.9,-169 113.9,-169 329.59,-169 329.59,-169"/>
<polygon fill="black" stroke="black" points="329.59,-172.5 339.59,-169 329.59,-165.5 329.59,-172.5"/>
</g>
<!-- ShortcutsAnchorDirective  -->
<g id="node7" class="node">
<title>ShortcutsAnchorDirective </title>
<polygon fill="#fb8072" stroke="black" points="729.45,-252 562.55,-252 562.55,-216 729.45,-216 729.45,-252"/>
<text text-anchor="middle" x="646" y="-229.8" font-family="Times,serif" font-size="14.00">ShortcutsAnchorDirective </text>
</g>
<!-- ShortcutsModule&#45;&gt;ShortcutsAnchorDirective  -->
<g id="edge6" class="edge">
<title>ShortcutsModule&#45;&gt;ShortcutsAnchorDirective </title>
<path fill="none" stroke="black" stroke-dasharray="5,2" d="M452.22,-178C508.23,-178 585.94,-178 585.94,-178 585.94,-178 585.94,-205.97 585.94,-205.97"/>
<polygon fill="black" stroke="black" points="582.44,-205.97 585.94,-215.97 589.44,-205.97 582.44,-205.97"/>
</g>
<!-- ShortcutsComponent  -->
<g id="node8" class="node">
<title>ShortcutsComponent </title>
<polygon fill="#fb8072" stroke="black" points="544.72,-252 407.28,-252 407.28,-216 544.72,-216 544.72,-252"/>
<text text-anchor="middle" x="476" y="-229.8" font-family="Times,serif" font-size="14.00">ShortcutsComponent </text>
</g>
<!-- ShortcutsModule&#45;&gt;ShortcutsComponent  -->
<g id="edge7" class="edge">
<title>ShortcutsModule&#45;&gt;ShortcutsComponent </title>
<path fill="none" stroke="black" stroke-dasharray="5,2" d="M429.68,-187.11C429.68,-187.11 429.68,-205.99 429.68,-205.99"/>
<polygon fill="black" stroke="black" points="426.18,-205.99 429.68,-215.99 433.18,-205.99 426.18,-205.99"/>
</g>
<!-- ShortcutsDirective  -->
<g id="node9" class="node">
<title>ShortcutsDirective </title>
<polygon fill="#fb8072" stroke="black" points="389.47,-252 264.53,-252 264.53,-216 389.47,-216 389.47,-252"/>
<text text-anchor="middle" x="327" y="-229.8" font-family="Times,serif" font-size="14.00">ShortcutsDirective </text>
</g>
<!-- ShortcutsModule&#45;&gt;ShortcutsDirective  -->
<g id="edge8" class="edge">
<title>ShortcutsModule&#45;&gt;ShortcutsDirective </title>
<path fill="none" stroke="black" stroke-dasharray="5,2" d="M364.51,-187.11C364.51,-187.11 364.51,-205.99 364.51,-205.99"/>
<polygon fill="black" stroke="black" points="361.01,-205.99 364.51,-215.99 368.01,-205.99 361.01,-205.99"/>
</g>
<!-- ShortcutsKeyComponent  -->
<g id="node10" class="node">
<title>ShortcutsKeyComponent </title>
<polygon fill="#fb8072" stroke="black" points="246.54,-252 85.46,-252 85.46,-216 246.54,-216 246.54,-252"/>
<text text-anchor="middle" x="166" y="-229.8" font-family="Times,serif" font-size="14.00">ShortcutsKeyComponent </text>
</g>
<!-- ShortcutsModule&#45;&gt;ShortcutsKeyComponent  -->
<g id="edge9" class="edge">
<title>ShortcutsModule&#45;&gt;ShortcutsKeyComponent </title>
<path fill="none" stroke="black" stroke-dasharray="5,2" d="M339.77,-178C282.91,-178 203.38,-178 203.38,-178 203.38,-178 203.38,-205.97 203.38,-205.97"/>
<polygon fill="black" stroke="black" points="199.88,-205.97 203.38,-215.97 206.88,-205.97 199.88,-205.97"/>
</g>
</g>
</svg>
